<svg xmlns="http://www.w3.org/2000/svg" viewBox="0 0 1585.94 127.94"><defs><style>.cls-1{fill:#5bba6f;}</style></defs><g id="Ebene_2" data-name="Ebene 2"><g id="Ebene_1-2" data-name="Ebene 1"><path class="cls-1" d="M84.42,91.18H29.91L11.36,126.13H0L67.25,1.72h10l24,124.41H90.92ZM34.61,82.3h48.1L70.41,14.88Z"/><path class="cls-1" d="M174.32,74.35H139.2l-9.06,51.78H119.63L141.25,1.72l36.83.08q18.61,0,28.71,9.7t8.46,26.19a37.32,37.32,0,0,1-9.36,21.54q-8.07,9.06-21.49,13.16l21.19,52.55-.08,1.19H194.4Zm-33.59-9,30.77.08q13.16,0,22.51-7.73a29.58,29.58,0,0,0,10.81-20.12q1.45-12-5.3-19.23t-19.91-7.6l-29.39-.09Z"/><path class="cls-1" d="M323.77,10.61H282.5L262.41,126.13H252L272.07,10.61H230.71l1.63-8.89h93Z"/><path class="cls-1" d="M379.05,1.72h10.51L374.61,89.13q-2.48,17.36-13.93,28.24t-28.54,10.56q-16.06-.34-24.44-10t-6.83-26.1h10.42q-1.28,12.48,4.36,19.65T332.82,119a27.38,27.38,0,0,0,20.43-7.78q8.53-8.12,10.85-22Z"/><path class="cls-1" d="M440.66,127.84q-17.43-.34-27.64-12.09T402,84.35a71.73,71.73,0,0,1,.6-13.59L404.26,59q3.84-26.05,18.8-42.55Q438.36-.41,460.83,0a38.89,38.89,0,0,1,20,5.6,35.45,35.45,0,0,1,13.37,15.55,56.89,56.89,0,0,1,5.21,22.43A79.34,79.34,0,0,1,498.68,58l-2,13.15a85.89,85.89,0,0,1-11.07,30.77Q477.58,115,466,121.56A48.68,48.68,0,0,1,440.66,127.84ZM488.43,57a101.12,101.12,0,0,0,.77-10.94,53.14,53.14,0,0,0-3.25-19A27.38,27.38,0,0,0,476.17,14a28.39,28.39,0,0,0-15.86-4.83q-17.08-.42-29.13,12.27t-15.9,34.3q-3.07,17.52-3,25.89,0,17.27,7.56,27t21.32,10.08q18.21.43,30.12-13.16t15.26-35.89Z"/><path class="cls-1" d="M548.41,1.72l25.38,109.54L637.37,1.72h14.09L629.85,126.13H619.42l9.49-54.6L639.08,17.7,575.76,126.13h-8L541.92,16.84,533.12,72l-9.4,54.09H513.29L534.91,1.72Z"/><path class="cls-1" d="M762.8,110q-6.75,8.8-18.71,13.33a76.29,76.29,0,0,1-27.17,4.53q-15.64,0-27.69-7.09a47.26,47.26,0,0,1-18.58-20.29q-6.54-13.2-6.8-30.81V59.91q0-28.2,13.51-44T715,0q20.76,0,33,10.3t14.7,29.61H741.53q-3.6-22.49-26.06-22.48-14.54,0-22.09,10.46t-7.82,30.69v9.56q0,20.14,8.5,31.29t23.63,11.14q16.57,0,23.58-7.52V78.71H715.64V62.3H762.8Z"/><path class="cls-1" d="M877.56,1.72V84.86q0,19.83-12.68,31.4t-33.8,11.58q-21.36,0-33.92-11.41T784.6,84.78V1.72h21.53V85q0,12.47,6.32,19t18.63,6.58q24.95,0,24.95-26.32V1.72Z"/><path class="cls-1" d="M928.66,1.72l35.89,95.36,35.8-95.36h27.95V126.13h-21.54v-41l2.14-54.86-36.74,95.87H956.69L920,30.35l2.14,54.77v41H900.63V1.72Z"/><path class="cls-1" d="M1126.56,70.59h-51.1v38.28h59.73v17.26h-81.34V1.72h80.75V19.15h-59.14V53.5h51.1Z"/><path class="cls-1" d="M1251.49,126.13h-21.62l-55.46-88.27v88.27h-21.62V1.72h21.62L1230,90.33V1.72h21.45Z"/><path class="cls-1" d="M1315.23,60.68l28.63-59h23.93l-41.7,78.61v45.8h-21.71V80.33L1262.6,1.72h24Z"/><path class="cls-1" d="M1464.09,1.72V84.86q0,19.83-12.69,31.4t-33.8,11.58q-21.36,0-33.92-11.41t-12.56-31.65V1.72h21.53V85q0,12.47,6.32,19t18.63,6.58q25,0,25-26.32V1.72Z"/><path class="cls-1" d="M1522.88,72.39l-14.1,15v38.79h-21.62V1.72h21.62V60.08l12-14.78,36.4-43.58h26.15l-46.23,55.11,48.88,69.3H1560.3Z"/></g></g></svg>